HIERARCHY
ROOT joint_Root
{
	OFFSET 0.0 0.0 0.0
	CHANNELS 6 Xposition Yposition Zposition Zrotation Xrotation Yrotation 
	JOINT Hips
	{
		OFFSET -17.1583 93.1646 452.98
		CHANNELS 6 Xposition Yposition Zposition Zrotation Xrotation Yrotation 
		JOINT Spine
		{
			OFFSET 15.7357 0.0 0.0
			CHANNELS 6 Xposition Yposition Zposition Zrotation Xrotation Yrotation 
			JOINT Chest
			{
				OFFSET 8.98455 -0.406207 0.0
				CHANNELS 6 Xposition Yposition Zposition Zrotation Xrotation Yrotation 
				JOINT Neck
				{
					OFFSET 16.3773 0.0 0.0
					CHANNELS 6 Xposition Yposition Zposition Zrotation Xrotation Yrotation 
					JOINT Head
					{
						OFFSET 6.45672 0.0 0.0
						CHANNELS 6 Xposition Yposition Zposition Zrotation Xrotation Yrotation 
						End Site
						{
							OFFSET 0.0 0.0 0.0
						}
					}
				}
				JOINT Shoulder_L
				{
					OFFSET 12.9942 -0.242716 4.98039
					CHANNELS 6 Xposition Yposition Zposition Zrotation Xrotation Yrotation 
					JOINT UpperArm_L
					{
						OFFSET 5.34809 0.0 0.0
						CHANNELS 6 Xposition Yposition Zposition Zrotation Xrotation Yrotation 
						JOINT LowerArm_L
						{
							OFFSET 24.3286 1.87007e-05 0.0
							CHANNELS 6 Xposition Yposition Zposition Zrotation Xrotation Yrotation 
							JOINT Hand_L
							{
								OFFSET 22.2916 0.0 0.0
								CHANNELS 6 Xposition Yposition Zposition Zrotation Xrotation Yrotation 
								End Site
								{
									OFFSET 0.0 0.0 0.0
								}
							}
						}
					}
				}
				JOINT Shoulder_R
				{
					OFFSET 12.9945 -0.242716 -4.98039
					CHANNELS 6 Xposition Yposition Zposition Zrotation Xrotation Yrotation 
					JOINT UpperArm_R
					{
						OFFSET -5.34813 0.0 0.0
						CHANNELS 6 Xposition Yposition Zposition Zrotation Xrotation Yrotation 
						JOINT LowerArm_R
						{
							OFFSET -24.3289 0.000322201 0.0
							CHANNELS 6 Xposition Yposition Zposition Zrotation Xrotation Yrotation 
							JOINT Hand_R
							{
								OFFSET -22.2915 -0.000108084 0.0
								CHANNELS 6 Xposition Yposition Zposition Zrotation Xrotation Yrotation 
								End Site
								{
									OFFSET 0.0 0.0 0.0
								}
							}
						}
					}
				}
			}
		}
		JOINT UpperLeg_L
		{
			OFFSET -2.19248 -6.46944 0.0
			CHANNELS 6 Xposition Yposition Zposition Zrotation Xrotation Yrotation 
			JOINT LowerLeg_L
			{
				OFFSET 39.0811 0.0 -1.23785e-05
				CHANNELS 6 Xposition Yposition Zposition Zrotation Xrotation Yrotation 
				JOINT Foot_L
				{
					OFFSET 40.9854 0.0 -1.26872e-05
					CHANNELS 6 Xposition Yposition Zposition Zrotation Xrotation Yrotation 
					JOINT Toes_L
					{
						OFFSET 11.7543 0.0 0.0
						CHANNELS 6 Xposition Yposition Zposition Zrotation Xrotation Yrotation 
						End Site
						{
							OFFSET 0.0 0.0 0.0
						}
					}
				}
			}
		}
		JOINT UpperLeg_R
		{
			OFFSET -2.19251 6.46944 0.0
			CHANNELS 6 Xposition Yposition Zposition Zrotation Xrotation Yrotation 
			JOINT LowerLeg_R
			{
				OFFSET -39.0811 -0.00228153 -0.0401928
				CHANNELS 6 Xposition Yposition Zposition Zrotation Xrotation Yrotation 
				JOINT Foot_R
				{
					OFFSET -40.9854 0.0 0.0
					CHANNELS 6 Xposition Yposition Zposition Zrotation Xrotation Yrotation 
					JOINT Toes_R
					{
						OFFSET -11.7543 0.0 0.0
						CHANNELS 6 Xposition Yposition Zposition Zrotation Xrotation Yrotation 
						End Site
						{
							OFFSET 0.0 0.0 0.0
						}
					}
				}
			}
		}
	}
}
MOTION
Frames:	8
Frame Time:	0.0333333
0.000000 0.000000 0.000000 0.000000 0.000000 -0.000000 -0.110009 93.019000 -0.446200 87.307200 -0.649711 1.419410 15.735700 0.000005 -0.000001 71.150900 86.959500 -69.152700 8.984550 -0.406207 -0.000000 -1.971260 -2.133830 3.959400 16.377300 -0.000001 -0.000001 4.498900 2.138340 -1.658070 6.456720 -0.000001 -0.000000 2.386230 2.001480 -3.429000 12.994200 -0.242716 4.980390 -92.505400 7.413950 -71.269000 5.348090 -0.000007 -0.000001 -74.427300 10.423200 2.430090 24.328600 0.000019 0.000005 13.220100 24.820100 -29.232800 22.291600 -0.000001 0.000005 -1.061810 4.997080 7.381420 12.994500 -0.242716 -4.980390 88.524300 4.511950 -71.868100 -5.348130 -0.000001 -0.000004 -68.795600 4.981650 -3.775860 -24.328900 0.000322 -0.000009 -0.275789 -0.762295 -19.830300 -22.291500 -0.000108 -0.000004 8.831330 5.201440 2.683670 -2.192480 -6.469440 -0.000000 -176.878000 0.055409 -1.492610 39.081100 -0.000007 -0.000012 0.170024 -0.509892 18.441300 40.985400 -0.000006 -0.000013 3.056570 10.442000 -71.262500 11.754300 -0.000000 0.000003 -0.000205 0.171010 -9.640560 -2.192510 6.469440 -0.000001 -176.078000 6.624960 -177.949000 -39.081100 -0.002282 -0.040193 0.031309 -0.129322 12.206000 -40.985400 0.000008 0.000006 -0.361050 3.907890 -68.368800 -11.754300 -0.000006 -0.000006 -0.010169 0.272563 -5.499530
0.000000 0.000000 0.000000 0.000000 0.000000 -0.000000 -0.160094 93.032100 -0.466816 87.310900 -0.624410 1.216920 15.735700 0.000005 -0.000001 70.714600 86.958200 -68.693600 8.984550 -0.406207 -0.000000 -1.982610 -2.180590 4.003930 16.377300 -0.000001 -0.000001 4.197600 2.068970 -1.406760 6.456720 -0.000001 -0.000000 1.796570 2.042330 -3.141390 12.994200 -0.242716 4.980390 -92.566500 7.571540 -71.212500 5.348090 -0.000007 -0.000001 -73.961200 8.385160 2.610030 24.328600 0.000019 0.000005 13.941900 24.538600 -30.869300 22.291600 -0.000001 0.000005 -1.304620 4.976670 7.811770 12.994500 -0.242716 -4.980390 88.507300 4.544080 -71.793400 -5.348130 -0.000001 -0.000004 -68.064100 2.895990 -3.639420 -24.328900 0.000322 -0.000009 0.001644 0.006041 -22.089000 -22.291500 -0.000108 -0.000004 8.201400 5.187380 3.034430 -2.192480 -6.469440 -0.000000 -176.843000 0.129751 -1.674410 39.081100 -0.000007 -0.000012 0.167773 -0.506060 18.342100 40.985400 -0.000006 -0.000013 3.007070 10.455800 -71.150100 11.754300 -0.000000 0.000003 0.000100 0.165918 -9.847340 -2.192510 6.469440 -0.000001 -176.028000 6.619880 -178.133000 -39.081100 -0.002282 -0.040193 0.029963 -0.124105 12.109600 -40.985400 0.000008 0.000006 -0.463299 3.880050 -68.252100 -11.754300 -0.000006 -0.000006 -0.010004 0.271338 -5.549630
0.000000 0.000000 0.000000 0.000000 0.000000 -0.000000 -0.208845 93.046100 -0.493796 87.300600 -0.594094 1.049080 15.735700 0.000005 -0.000001 70.637200 86.952900 -68.591500 8.984550 -0.406207 -0.000000 -1.974570 -2.193810 4.053500 16.377300 -0.000001 -0.000001 3.912310 1.962340 -1.091460 6.456720 -0.000001 -0.000000 1.040250 2.053110 -2.708530 12.994200 -0.242716 4.980390 -92.625400 7.713140 -71.137500 5.348090 -0.000007 -0.000001 -73.357500 5.923170 3.081960 24.328600 0.000019 0.000005 14.635200 23.201900 -33.538200 22.291600 -0.000001 0.000005 -1.387780 4.966760 8.018510 12.994500 -0.242716 -4.980390 88.496700 4.554220 -71.710700 -5.348130 -0.000001 -0.000004 -67.361900 0.309001 -3.289410 -24.328900 0.000322 -0.000009 0.175315 0.375389 -25.156600 -22.291500 -0.000108 -0.000004 7.794400 5.173450 3.376710 -2.192480 -6.469440 -0.000000 -176.792000 0.123057 -1.828500 39.081100 -0.000007 -0.000012 0.167095 -0.506074 18.272400 40.985400 -0.000006 -0.000013 2.956640 10.465900 -71.145900 11.754300 -0.000000 0.000003 -0.000068 0.168756 -9.732090 -2.192510 6.469440 -0.000001 -175.956000 6.520130 -178.257000 -39.081100 -0.002282 -0.040193 0.028858 -0.120303 11.977700 -40.985400 0.000008 0.000006 -0.536068 3.782940 -68.185800 -11.754300 -0.000006 -0.000006 -0.010015 0.271419 -5.546320
0.000000 0.000000 0.000000 0.000000 0.000000 -0.000000 -0.266258 93.053200 -0.501053 87.311700 -0.548120 0.910450 15.735700 0.000005 -0.000001 70.999300 86.936500 -68.931500 8.984550 -0.406207 -0.000000 -1.930880 -2.169190 4.098780 16.377300 -0.000001 -0.000001 3.648740 1.849850 -0.723686 6.456720 -0.000001 -0.000000 0.118954 2.030940 -2.139990 12.994200 -0.242716 4.980390 -92.661400 7.782600 -71.054200 5.348090 -0.000007 -0.000001 -72.808800 2.716870 3.611120 24.328600 0.000019 0.000005 14.867300 20.688900 -36.924600 22.291600 -0.000001 0.000005 -1.498620 4.939370 8.583110 12.994500 -0.242716 -4.980390 88.481000 4.569080 -71.587900 -5.348130 -0.000001 -0.000004 -66.721500 -3.006680 -2.865800 -24.328900 0.000322 -0.000009 0.554819 1.002380 -28.987500 -22.291500 -0.000108 -0.000004 7.597520 5.155630 3.808770 -2.192480 -6.469440 -0.000000 -176.758000 0.088908 -1.949250 39.081100 -0.000007 -0.000012 0.166962 -0.507250 18.219300 40.985400 -0.000006 -0.000013 2.915640 10.512700 -71.154700 11.754300 -0.000000 0.000003 -0.000231 0.171426 -9.623650 -2.192510 6.469440 -0.000001 -175.896000 6.486000 -178.348000 -39.081100 -0.002282 -0.040193 0.028687 -0.120671 11.864400 -40.985400 0.000008 0.000006 -0.472780 3.683880 -68.138000 -11.754300 -0.000006 -0.000006 -0.010258 0.273221 -5.472620
0.000000 0.000000 0.000000 0.000000 0.000000 -0.000000 -0.329966 93.062600 -0.522648 87.326900 -0.519746 0.751792 15.735700 0.000005 -0.000001 71.439100 86.927400 -69.348500 8.984550 -0.406207 -0.000000 -1.898520 -2.131860 4.145560 16.377300 -0.000001 -0.000001 3.321940 1.757420 -0.340375 6.456720 -0.000001 -0.000000 -0.732100 2.005100 -1.401000 12.994200 -0.242716 4.980390 -92.677500 7.781060 -70.944300 5.348090 -0.000007 -0.000001 -72.258800 -0.986930 4.239530 24.328600 0.000019 0.000005 14.295200 17.010400 -41.062200 22.291600 -0.000001 0.000005 -1.396770 4.906200 9.252510 12.994500 -0.242716 -4.980390 88.465500 4.594130 -71.507100 -5.348130 -0.000001 -0.000004 -66.182900 -6.753730 -2.251300 -24.328900 0.000322 -0.000009 1.266590 1.885170 -33.902400 -22.291500 -0.000108 -0.000004 8.025930 5.117210 4.714480 -2.192480 -6.469440 -0.000000 -176.729000 0.184362 -2.097270 39.081100 -0.000007 -0.000012 0.165202 -0.504096 18.145200 40.985400 -0.000006 -0.000013 2.857320 10.507400 -71.084500 11.754300 -0.000000 0.000003 -0.000136 0.169891 -9.686020 -2.192510 6.469440 -0.000001 -175.837000 6.437730 -178.483000 -39.081100 -0.002282 -0.040193 0.028673 -0.121612 11.768900 -40.985400 0.000008 0.000006 -0.431058 3.621800 -68.075500 -11.754300 -0.000006 -0.000006 -0.009953 0.270955 -5.565290
0.000000 0.000000 0.000000 0.000000 0.000000 -0.000000 -0.418088 93.064900 -0.539650 87.306000 -0.437008 0.706061 15.735700 0.000005 -0.000001 71.965100 86.887300 -69.830500 8.984550 -0.406207 -0.000000 -1.804120 -2.105060 4.235370 16.377300 -0.000001 -0.000001 3.090880 1.699850 0.058502 6.456720 -0.000001 -0.000000 -1.653800 2.018370 -0.503434 12.994200 -0.242716 4.980390 -92.660600 7.703380 -70.880300 5.348090 -0.000007 -0.000001 -71.778400 -4.688930 4.952920 24.328600 0.000019 0.000005 14.260700 13.934400 -46.548700 22.291600 -0.000001 0.000005 -0.313987 4.883900 9.695210 12.994500 -0.242716 -4.980390 88.477000 4.542760 -71.443600 -5.348130 -0.000001 -0.000004 -65.726300 -10.340700 -1.509430 -24.328900 0.000322 -0.000009 2.133080 2.556240 -39.868100 -22.291500 -0.000108 -0.000004 9.523940 5.081640 5.526470 -2.192480 -6.469440 -0.000000 -176.654000 0.294680 -2.168930 39.081100 -0.000007 -0.000012 0.166222 -0.506680 18.162900 40.985400 -0.000006 -0.000013 2.788720 10.475200 -71.097700 11.754300 -0.000000 0.000003 0.000070 0.166443 -9.826030 -2.192510 6.469440 -0.000001 -175.749000 6.475570 -178.510000 -39.081100 -0.002282 -0.040193 0.027781 -0.117933 11.710300 -40.985400 0.000008 0.000006 -0.455537 3.570650 -68.056300 -11.754300 -0.000006 -0.000006 -0.010232 0.273028 -5.480530
0.000000 0.000000 0.000000 0.000000 0.000000 -0.000000 -0.511816 93.054100 -0.546736 87.314500 -0.284029 0.655985 15.735700 0.000005 -0.000001 71.976200 86.857900 -69.804600 8.984550 -0.406207 -0.000000 -1.746610 -2.124120 4.310120 16.377300 -0.000001 -0.000001 2.880830 1.640570 0.508427 6.456720 -0.000001 -0.000000 -2.432720 2.087730 0.533841 12.994200 -0.242716 4.980390 -92.625100 7.572800 -70.817000 5.348090 -0.000007 -0.000001 -71.262700 -8.015450 5.630150 24.328600 0.000019 0.000005 15.385300 11.784500 -53.415100 22.291600 -0.000001 0.000005 1.592360 4.848540 10.385900 12.994500 -0.242716 -4.980390 88.478900 4.506720 -71.327700 -5.348130 -0.000001 -0.000004 -65.229000 -13.574900 -0.818745 -24.328900 0.000322 -0.000009 3.290360 3.116420 -46.597400 -22.291500 -0.000108 -0.000004 11.362300 5.048870 6.259650 -2.192480 -6.469440 -0.000000 -176.598000 0.507524 -2.302280 39.081100 -0.000007 -0.000012 0.167317 -0.506999 18.264000 40.985400 -0.000006 -0.000013 2.718840 10.451000 -71.102900 11.754300 -0.000000 0.000003 0.000039 0.166959 -9.805070 -2.192510 6.469440 -0.000001 -175.652000 6.522810 -178.569000 -39.081100 -0.002282 -0.040193 0.029497 -0.126152 11.716000 -40.985400 0.000008 0.000006 -0.232104 3.433380 -68.080700 -11.754300 -0.000006 -0.000006 -0.009808 0.269863 -5.609970
0.000000 0.000000 0.000000 0.000000 0.000000 -0.000000 -0.624851 93.045000 -0.547097 87.267600 -0.099701 0.649332 15.735700 0.000005 -0.000001 72.076700 86.838000 -69.838400 8.984550 -0.406207 -0.000000 -1.703820 -2.130550 4.444110 16.377300 -0.000001 -0.000001 2.832420 1.570700 0.982993 6.456720 -0.000001 -0.000000 -3.166390 2.157130 1.679130 12.994200 -0.242716 4.980390 -92.575600 7.420800 -70.797900 5.348090 -0.000007 -0.000001 -70.662200 -10.715500 6.095280 24.328600 0.000019 0.000005 17.332900 9.916180 -61.108300 22.291600 -0.000001 0.000005 4.072550 4.794270 11.419400 12.994500 -0.242716 -4.980390 88.488100 4.449290 -71.210300 -5.348130 -0.000001 -0.000004 -64.707100 -16.536100 -0.160706 -24.328900 0.000322 -0.000009 4.244740 3.092290 -53.989500 -22.291500 -0.000108 -0.000004 12.989300 5.018790 6.913610 -2.192480 -6.469440 -0.000000 -176.473000 0.693009 -2.397970 39.081100 -0.000007 -0.000012 0.171703 -0.515826 18.411300 40.985400 -0.000006 -0.000013 2.646870 10.462400 -71.244700 11.754300 -0.000000 0.000003 -0.000062 0.168657 -9.736120 -2.192510 6.469440 -0.000001 -175.496000 6.477860 -178.533000 -39.081100 -0.002282 -0.040193 0.029222 -0.125640 11.642100 -40.985400 0.000008 0.000006 -0.154132 3.199820 -68.083200 -11.754300 -0.000006 -0.000006 -0.010009 0.271371 -5.548280
